<?xml version="1.0" encoding="UTF-8"?>
<!DOCTYPE svg PUBLIC "-//W3C//DTD SVG 1.1//EN" "http://www.w3.org/Graphics/SVG/1.1/DTD/svg11.dtd">
<!-- Creator: CorelDRAW -->
<svg xmlns="http://www.w3.org/2000/svg" xml:space="preserve" width="39.7085mm" height="13.1128mm" version="1.1" shape-rendering="geometricPrecision" text-rendering="geometricPrecision" image-rendering="optimizeQuality" fill-rule="evenodd" clip-rule="evenodd"
viewBox="0 0 4156.97 1372.74"
 xmlns:xlink="http://www.w3.org/1999/xlink"
 xmlns:xodm="http://www.corel.com/coreldraw/odm/2003">
 <g id="Camada_x0020_1">
  <metadata id="CorelCorpID_0Corel-Layer"/>
  <path fill="black" fill-rule="nonzero" d="M106.62 864.35c-70.54,-71.75 -107.03,-158.11 -107.03,-257.84l0 -606.91 133.79 0 0 606.91c0,63.24 21.89,117.97 66.9,164.19 46.22,45.01 100.95,68.11 165.41,68.11 63.25,0 119.2,-23.1 164.2,-68.11 44.99,-46.22 66.9,-100.95 66.9,-164.19l0 -606.91 133.78 0 0 606.91c0,99.74 -36.48,186.09 -107.02,257.84 -71.76,71.76 -156.91,107.03 -257.86,107.03 -100.95,0 -187.3,-35.27 -259.06,-107.03z"/>
  <path id="1" fill="black" fill-rule="nonzero" d="M1078.61 413.12c76.63,0 141.09,26.76 195.82,81.49 54.73,53.52 81.49,119.2 81.49,195.82l0 280.96 -132.57 0 0 -280.96c0,-40.14 -13.38,-74.19 -42.58,-102.16 -27.97,-29.19 -62.03,-42.57 -102.16,-42.57 -38.92,0 -74.19,13.38 -102.16,42.57 -29.19,27.97 -42.57,62.03 -42.57,102.16l0 280.96 -132.58 0 0 -280.96c0,-76.62 27.97,-142.3 81.49,-195.82 54.73,-54.73 120.41,-81.49 195.82,-81.49z"/>
  <path id="2" fill="black" fill-rule="nonzero" d="M1574.85 971.38l-131.35 0 0 -332.04 131.35 0 0 332.04zm-7.3 -415.96c-15.81,15.82 -35.27,24.33 -57.16,24.33 -23.11,0 -42.58,-8.51 -59.6,-24.33 -15.82,-17.02 -24.33,-36.48 -24.33,-59.59 0,-23.11 8.51,-42.58 24.33,-58.38 17.02,-17.03 36.48,-24.33 59.6,-24.33 21.89,0 41.35,7.3 57.16,24.33 17.03,15.81 24.33,35.27 24.33,58.38 0,23.1 -7.3,42.57 -24.33,59.59z"/>
  <path id="3" fill="black" fill-rule="nonzero" d="M1765 900.84c-60.81,-52.3 -91.21,-120.41 -91.21,-206.77l130.14 0c0,48.65 19.46,86.36 57.17,114.33 31.62,20.68 66.88,31.63 104.59,31.63 47.43,0 87.57,-12.16 120.41,-36.49 34.05,-24.32 49.86,-58.37 49.86,-104.59 0,-29.2 -9.73,-53.52 -30.4,-70.55 -26.76,-29.19 -76.63,-47.43 -148.38,-54.73 -99.74,-12.16 -175.14,-47.43 -228.66,-104.59 -43.79,-48.66 -65.68,-103.39 -65.68,-166.63 0,-74.19 23.11,-139.87 66.9,-197.03 54.73,-70.55 131.36,-105.82 229.87,-105.82 91.22,0 166.63,29.2 223.79,88.79 59.6,57.17 88.79,136.22 88.79,234.74l-130.14 0c0,-55.94 -13.38,-100.95 -40.14,-132.58 -32.84,-40.13 -80.27,-59.59 -142.3,-59.59 -68.11,0 -115.54,27.97 -143.52,85.13 -14.59,27.97 -21.89,57.17 -21.89,86.36 0,24.33 9.73,47.43 25.53,70.54 30.41,38.92 81.49,62.04 153.25,70.55 110.68,12.16 189.74,47.43 238.38,107.03 37.71,43.78 55.96,100.95 55.96,169.06 0,69.32 -27.97,127.71 -85.14,177.57 -57.16,48.65 -128.92,74.19 -216.49,74.19 -76.62,0 -143.52,-24.33 -200.69,-70.54z"/>
  <path id="4" fill="black" fill-rule="nonzero" d="M2623.08 413.12c75.41,0 139.86,26.76 193.38,80.27 54.73,53.52 81.49,119.2 81.49,194.6l0 283.39 -131.35 0 0 -283.39c0,-40.14 -13.38,-74.19 -42.57,-100.95 -27.98,-29.19 -62.04,-43.78 -100.95,-43.78 -38.92,0 -74.19,14.59 -102.17,43.78 -27.97,26.76 -42.57,60.81 -42.57,100.95l0 283.39 -135 0 0 -971.79 131.36 0 0 456.1c44.99,-27.97 94.87,-42.58 148.38,-42.58z"/>
  <path id="5" fill="black" fill-rule="nonzero" d="M3144.85 589.47c-27.97,27.98 -42.57,62.04 -42.57,103.39 0,38.92 14.59,74.19 42.57,102.16 29.2,29.19 63.25,43.78 103.39,43.78 40.14,0 74.19,-14.59 103.38,-43.78 27.97,-27.97 42.57,-63.24 42.57,-102.16 0,-41.35 -14.59,-75.41 -42.57,-103.39 -29.19,-29.19 -63.24,-43.78 -103.38,-43.78 -40.14,0 -74.19,14.59 -103.39,43.78zm-93.65 300.42c-54.73,-54.73 -82.7,-120.41 -82.7,-197.03 0,-77.85 27.97,-143.52 82.7,-197.03 54.74,-54.73 120.41,-82.71 197.04,-82.71 76.62,0 142.3,27.98 197.03,82.71 54.73,53.52 81.49,119.19 81.49,197.03 0,76.62 -26.76,142.3 -81.49,197.03 -54.73,54.73 -120.41,81.49 -197.03,81.49 -76.63,0 -142.3,-26.76 -197.04,-81.49z"/>
  <path id="6" fill="black" fill-rule="nonzero" d="M3877.65 545.69c-40.14,0 -74.19,14.59 -103.39,42.57 -29.19,29.2 -42.57,63.25 -42.57,104.6 0,38.92 13.38,74.19 42.57,102.16 29.2,29.19 63.25,43.78 103.39,43.78 40.14,0 75.41,-14.59 103.38,-43.78 29.19,-27.97 42.57,-63.24 42.57,-102.16 0,-41.35 -13.38,-75.41 -42.57,-104.6 -27.97,-27.97 -63.24,-42.57 -103.38,-42.57zm-278.53 147.17c0,-77.85 27.98,-143.52 81.49,-198.26 54.74,-54.73 120.41,-81.49 197.04,-81.49 77.83,0 142.3,26.76 197.03,81.49 54.73,54.74 82.7,120.41 82.7,198.26 0,76.62 -27.97,142.3 -82.7,197.03 -54.73,54.73 -119.2,81.49 -197.03,81.49 -54.73,0 -103.39,-13.38 -147.17,-41.35l0 97.3c0,85.14 23.1,145.95 69.32,182.44 26.76,19.46 57.17,30.41 90,31.63l-1.21 65.68 0 65.67c-68.11,0 -127.71,-24.32 -182.44,-70.54 -70.54,-62.03 -107.03,-153.25 -107.03,-274.88l0 -334.47z"/>
 </g>
</svg>
